<?xml version="1.0" ?><svg data-name="1-hygienic mask" id="_1-hygienic_mask" viewBox="0 0 64 64" xmlns="http://www.w3.org/2000/svg"><path d="M57,16c-4.53864,0-7.49457,4.79932-8.52026,6.778A4.1022,4.1022,0,0,0,46,22c-5.11279,0-6.52344-1.05127-7.88721-2.06787A8.57421,8.57421,0,0,0,32,18a8.57421,8.57421,0,0,0-6.11279,1.93213C24.52344,20.94873,23.11279,22,18,22a4.10174,4.10174,0,0,0-2.47974.778C14.49463,20.79938,11.5387,16,7,16c-4.44873,0-7,4.00928-7,11,0,3.98486,2.97461,14,10,14h8.23218a17.03949,17.03949,0,0,0,27.53564,0H54c7.02539,0,10-10.01514,10-14C64,20.00928,61.44873,16,57,16ZM10,39c-5.27832,0-8-8.41113-8-12,0-2.70605.4873-9,5-9,4.27588,0,7.14844,6.36609,7.14844,6.36609A9.89023,9.89023,0,0,0,13,29a31.43531,31.43531,0,0,0,3.85968,10Zm22,7c-5.82227,0-10.44238-2.84473-13.73291-8.45557a29.0843,29.0843,0,0,1-3.26514-8.624C15.022,28.273,15.25977,24,18,24c5.77637,0,7.53271-1.30908,9.08252-2.46436A6.66779,6.66779,0,0,1,32,20a6.66779,6.66779,0,0,1,4.91748,1.53564C38.46729,22.69092,40.22363,24,46,24c2.74023,0,2.978,4.273,2.998,4.92041C48.75146,30.22705,45.47949,46,32,46Zm22-7H47.14032A31.43531,31.43531,0,0,0,51,29a9.89023,9.89023,0,0,0-1.14844-4.63391S52.72412,18,57,18c4.5127,0,5,6.29395,5,9C62,30.58887,59.27832,39,54,39Z"/><path d="M42.31641,28.05127C42.06494,27.96777,36.11475,26,32,26s-10.06494,1.96777-10.31641,2.05127a1,1,0,0,0,.63233,1.89746C22.37451,29.9292,28.21143,28,32,28s9.62549,1.9292,9.68408,1.94873a1,1,0,0,0,.63233-1.89746Z"/><path d="M42.31641,33.05127C42.06494,32.96777,36.11475,31,32,31s-10.06494,1.96777-10.31641,2.05127a1,1,0,0,0,.63233,1.89746C22.37451,34.9292,28.21143,33,32,33s9.62549,1.9292,9.68408,1.94873a1,1,0,0,0,.63233-1.89746Z"/><path d="M41.37158,38.07129A30.23439,30.23439,0,0,0,32,36a30.23439,30.23439,0,0,0-9.37158,2.07129,1.0002,1.0002,0,0,0,.74267,1.85742A28.70918,28.70918,0,0,1,32,38a28.70918,28.70918,0,0,1,8.62891,1.92871,1.0002,1.0002,0,0,0,.74267-1.85742Z"/></svg>