<?xml version="1.0" encoding="iso-8859-1"?>
<!-- Generator: Adobe Illustrator 19.0.0, SVG Export Plug-In . SVG Version: 6.00 Build 0)  -->
<svg version="1.1" id="Layer_1" xmlns="http://www.w3.org/2000/svg" xmlns:xlink="http://www.w3.org/1999/xlink" x="0px" y="0px"
	 viewBox="0 0 512.001 512.001" style="enable-background:new 0 0 512.001 512.001;" xml:space="preserve">
<g>
	<g>
		<path d="M490.685,111.192l-25.844-25.844c-3.984-3.983-10.44-3.983-14.425,0c-3.983,3.983-3.983,10.441,0,14.425l25.844,25.844
			c9.894,9.893,15.343,23.047,15.343,37.038v108.544c-7.386-4.967-16.287-7.871-25.858-7.871H327.022
			c-10.515,0-20.705,3.651-28.82,10.172c-24.733-19.558-59.956-19.558-84.689,0c-8.114-6.52-18.305-10.172-28.82-10.172H45.971
			c-9.458,0-18.257,2.873-25.572,7.79V162.655c0-13.991,5.448-27.145,15.343-37.038l25.844-25.844
			c3.983-3.983,3.983-10.441,0-14.425c-3.984-3.983-10.44-3.983-14.425,0l-25.844,25.844C7.571,124.939,0,143.216,0,162.655v189.148
			c0,42.919,34.917,77.836,77.835,77.836h26.453c31.972,0,62.506-11.956,85.978-33.666c23.471-21.709,37.769-51.219,40.259-83.095
			c0.632-8.094-0.924-16.164-4.364-23.381c17.347-13.713,42.046-13.713,59.393,0c-3.44,7.217-4.997,15.287-4.364,23.381
			c2.49,31.875,16.788,61.385,40.259,83.094c23.472,21.71,54.006,33.665,85.978,33.665h26.453c43.075,0,78.121-34.917,78.121-77.836
			V162.655C512.001,143.216,504.43,124.94,490.685,111.192z M210.188,311.291c-4.291,54.925-50.807,97.95-105.9,97.95H77.835
			c-31.671,0-57.437-25.767-57.437-57.438v-42.504c0-14.101,11.472-25.572,25.572-25.572h138.722c7.21,0,13.877,2.915,18.774,8.208
			C208.364,297.229,210.75,304.103,210.188,311.291z M491.603,351.804h-0.001c0,31.672-25.895,57.438-57.722,57.438h-26.452
			c-55.093,0-101.61-43.025-105.9-97.95c-0.562-7.188,1.825-14.063,6.721-19.356c4.896-5.293,11.564-8.208,18.774-8.208h138.722
			c14.258,0,25.858,11.472,25.858,25.572V351.804z"/>
	</g>
</g>
<g>
	<g>
		<path d="M469.027,296.386H405.19c-5.632,0-10.199,4.566-10.199,10.199c0,5.633,4.567,10.199,10.199,10.199h63.837
			c5.632,0,10.199-4.566,10.199-10.199C479.226,300.952,474.66,296.386,469.027,296.386z"/>
	</g>
</g>
<g>
	<g>
		<path d="M366.432,296.386h-5.7c-5.632,0-10.199,4.566-10.199,10.199c0,5.633,4.567,10.199,10.199,10.199h5.7
			c5.632,0,10.199-4.566,10.199-10.199C376.631,300.952,372.065,296.386,366.432,296.386z"/>
	</g>
</g>
<g>
</g>
<g>
</g>
<g>
</g>
<g>
</g>
<g>
</g>
<g>
</g>
<g>
</g>
<g>
</g>
<g>
</g>
<g>
</g>
<g>
</g>
<g>
</g>
<g>
</g>
<g>
</g>
<g>
</g>
</svg>
